# xmcd CD database file
#
# Track frame offsets:
#	150
#	21075
#	41894
#	62681
#	84490
#	108355
#	127801
#	148435
#	169909
#	192443
#	212361
#
# Disc length: 3163 seconds
#
# Revision: 0
# Processed by: cddbd v1.5.2PL0 Copyright (c) Steve Scherf et al.
# Submitted via: CDex 1.75
#
DISCID=9b0c590b
DTITLE=Diane Arkenstone - Heart of the Vineyard
DYEAR=2018
DGENRE=New Age
TTITLE0=Sunrise on the Vineyard
TTITLE1=Soul of the Earth
TTITLE2=Jewels on the Vine
TTITLE3=Spring Day
TTITLE4=Shadow of the Moon
TTITLE5=First Blush
TTITLE6=Cup of Life
TTITLE7=Hills of Gold
TTITLE8=Summer Rains
TTITLE9=Sweet Harvest
TTITLE10=Under the Stars
EXTD=YEAR: 2018
EXTT0=
EXTT1=
EXTT2=
EXTT3=
EXTT4=
EXTT5=
EXTT6=
EXTT7=
EXTT8=
EXTT9=
EXTT10=
PLAYORDER=
